
<svg width="118" height="24" viewBox="0 0 118 24" xmlns="http://www.w3.org/2000/svg"><title>logo</title><path d="M5.247 15.477c-2.014 0-3.39-1.726-3.39-3.972C1.857 9.235 3.27 7.5 5.28 7.5c.886 0 1.82.336 2.536.895l.806-1.28C7.688 6.3 6.38 5.85 5.14 5.85 2.217 5.85 0 8.305 0 11.547c0 3.18 2.147 5.603 5.076 5.603 1.25 0 2.64-.446 3.56-1.247l-.82-1.313c-.682.527-1.65.887-2.57.887zm13.57-6.058C18.817 7.44 17.5 6 15.235 6h-3.608v10.99h1.8v-4.12h1.495l2.166 4.124h2.132l-2.46-4.39c1.295-.507 2.058-1.687 2.058-3.185zM24.967 6l-3.65 10.986h1.878l.848-2.76h3.882l.858 2.76h1.976l-3.7-10.984h-2.1zm15.407 1.36V6.007H33.13v1.598h4.945l-5.124 8.058v1.332h7.5v-1.617h-5.22l5.16-8.015zm6.965 3.243l-2.5-4.597h-2.09l3.64 6.413v4.57h1.81v-4.58L51.91 6h-1.956l-2.614 4.6zm12.57.574c.79-.44 1.24-1.237 1.24-2.32 0-1.8-1.23-2.85-3.28-2.85h-3.4v10.985h3.97c2.01 0 3.35-1.29 3.35-3.11 0-1.392-.8-2.383-1.898-2.705zM68 6.007l-3.65 10.985h1.876l.85-2.76h3.88l.86 2.76h1.98L70.103 6.007H68.01zm14.484 5.17c.792-.44 1.247-1.237 1.247-2.32 0-1.8-1.22-2.85-3.28-2.85h-3.4v10.985h3.98c2.01 0 3.36-1.29 3.36-3.11 0-1.392-.8-2.383-1.89-2.705zm8.53-.574l-2.49-4.596h-2.1l3.64 6.413v4.573h1.815V12.41l3.7-6.403h-1.95l-2.62 4.597zM78.852 7.618h1.38c1.01 0 1.697.412 1.697 1.422 0 1.047-.71 1.54-1.61 1.54h-1.47V7.618zm1.915 7.754H78.85v-3.25h1.787c1.147 0 1.9.52 1.9 1.63 0 1.11-.753 1.62-1.772 1.62zM67.55 12.675l1.46-4.726 1.48 4.72h-2.94zM56.276 7.618h1.38c1.01 0 1.696.412 1.696 1.422 0 1.047-.71 1.54-1.606 1.54h-1.47V7.618zm1.915 7.754h-1.91v-3.25h1.79c1.15 0 1.9.52 1.9 1.63 0 1.11-.75 1.62-1.77 1.62zm-33.67-2.697l1.46-4.726 1.48 4.72h-2.94zM15 11.245h-1.57v-3.62H15c1.207 0 1.99.613 1.99 1.82 0 1.153-.71 1.798-1.99 1.798zm96.995-7.876c-.735-.25-1.024-.79-1.442-1.38a3.76 3.76 0 0 0-1.818-1.37c.346 1.12-.316 2.33-1.433 2.66a8.5 8.5 0 1 0 4.694.08zM109.517 17a3.825 3.825 0 1 1 0-7.65 3.825 3.825 0 0 1 0 7.65z" fill-rule="evenodd"/></svg>