
<svg width="24" height="20" viewBox="0 0 24 20" xmlns="http://www.w3.org/2000/svg"><title>weibo</title><g fill="none" fill-rule="evenodd"><path d="M-1030-55H410v250h-1440z"/><path d="M17.024 9.185c-.282-.09-.475-.15-.327-.538.32-.843.352-1.57.006-2.09-.65-.972-2.426-.92-4.462-.025 0 0-.63.294-.47-.24.32-1.055.27-1.94-.22-2.45-1.1-1.16-4.04.043-6.56 2.685C3.1 8.507 2 10.605 2 12.42 2 15.89 6.24 18 10.39 18c5.44 0 9.058-3.316 9.058-5.95 0-1.59-1.277-2.492-2.424-2.865zm-6.622 7.57c-3.31.344-6.17-1.226-6.384-3.507-.215-2.28 2.295-4.408 5.606-4.75 3.31-.345 6.17 1.226 6.384 3.506.214 2.28-2.295 4.408-5.606 4.752zm10.234-13.92c-1.314-1.53-3.25-2.112-5.04-1.713-.414.093-.678.52-.59.953.09.434.496.71.91.62 1.272-.285 2.65.13 3.583 1.216.93 1.09 1.18 2.57.78 3.87-.13.42.09.88.49 1.01.4.14.83-.09.96-.51v-.01c.56-1.82.2-3.9-1.11-5.43zm-2.31 5.002a.654.654 0 0 0 .83-.446 2.802 2.802 0 0 0-.537-2.64 2.504 2.504 0 0 0-2.46-.83.692.692 0 0 0-.51.83c.07.37.42.61.78.53a1.23 1.23 0 0 1 1.2.41c.31.37.39.86.26 1.3-.11.37.08.76.42.87zm-7.686 2.447c-1.69-.46-3.6.423-4.335 1.986-.748 1.594-.025 3.363 1.683 3.942 1.77.598 3.854-.32 4.58-2.04.714-1.682-.178-3.413-1.928-3.888zm-1.29 4.07c-.345.576-1.08.828-1.634.563-.547-.26-.708-.93-.364-1.49.34-.56 1.05-.808 1.6-.566.557.25.735.92.397 1.5zm1.13-1.523c-.123.23-.398.33-.613.24-.21-.09-.278-.34-.158-.56.12-.22.38-.32.59-.23.21.08.29.34.17.56z" fill="#000"/></g></svg>